<?xml version="1.0" encoding="UTF-8"?>
<svg id="Layer_1" xmlns="http://www.w3.org/2000/svg" xmlns:xlink="http://www.w3.org/1999/xlink" version="1.1" viewBox="0 0 500 500">
  <!-- Generator: Adobe Illustrator 29.5.1, SVG Export Plug-In . SVG Version: 2.1.0 Build 141)  -->
  <defs>
    <style>
      .st0 {
        fill: url(#linear-gradient);
      }
    </style>
    <linearGradient id="linear-gradient" x1="130.68" y1="68.32" x2="418.92" y2="413.97" gradientUnits="userSpaceOnUse">
      <stop offset="0" stop-color="#6decae"/>
      <stop offset="1" stop-color="#8180ff"/>
    </linearGradient>
  </defs>
  <path class="st0" d="M450.53,100.15c-29.19,0-57.44-4.51-83.98-13.42-21.26-7.14-41.48-17.1-60.12-29.6-31.89-21.4-48.3-43.14-48.45-43.34l-7.97-10.79-7.98,10.77c-.16.22-16.57,21.95-48.46,43.35-18.64,12.51-38.87,22.47-60.12,29.6-26.54,8.9-54.79,13.42-83.98,13.42h-9.93v83.88c0,61.16,10.85,115.63,32.25,161.91,17.23,37.28,41.28,69.31,71.48,95.2,26.87,23.04,53.73,36.84,71.53,44.36,19.48,8.23,32.65,10.98,33.2,11.09l1.99.41h.02s1.99-.4,1.99-.4c.55-.11,13.72-2.86,33.2-11.09,17.8-7.52,44.66-21.32,71.53-44.36,30.19-25.9,54.24-57.93,71.48-95.2,21.4-46.28,32.25-100.76,32.25-161.91v-83.88h-9.93ZM440.61,184.03c0,57.98-10.14,109.44-30.14,152.96-15.91,34.62-38.09,64.37-65.92,88.42-24.85,21.47-49.74,34.38-66.24,41.42-13.75,5.87-24.13,8.76-28.3,9.81-4.18-1.05-14.57-3.94-28.31-9.81-16.51-7.04-41.39-19.95-66.24-41.42-27.83-24.05-50.01-53.8-65.92-88.42-20-43.52-30.14-94.98-30.14-152.96v-64.17h.03c28.03-.93,55.21-5.79,80.92-14.48,23.01-7.78,44.9-18.63,65.05-32.25,21.44-14.49,36.29-28.97,44.62-38.07,8.33,9.1,23.18,23.58,44.62,38.07,20.15,13.62,42.04,24.47,65.05,32.25,25.71,8.69,52.89,13.55,80.92,14.48v64.17ZM144.57,117.93c-22.97,7.77-47.11,12.62-71.92,14.48v51.62c0,56.06,9.74,105.66,28.93,147.43,15.11,32.89,36.15,61.12,62.54,83.93,23.55,20.36,47.13,32.59,62.77,39.26,10.15,4.33,18.31,6.92,23.1,8.28h.01s0-408.89,0-408.89c-9.13,8.85-21.5,19.46-37.2,30.07-21.14,14.28-44.09,25.66-68.23,33.82ZM210.16,263.4l-44.35,44.35c-1.44,1.44-3.33,2.16-5.23,2.16s-3.78-.72-5.23-2.16c-2.89-2.89-2.89-7.56,0-10.45l39.12-39.12-39.12-39.12c-2.89-2.89-2.89-7.56,0-10.45,2.89-2.89,7.57-2.89,10.45,0l44.35,44.35c1.39,1.39,2.16,3.27,2.16,5.23s-.78,3.84-2.16,5.23ZM294.45,273.78h72.7c4.64,0,8.4,3.76,8.4,8.4s-3.76,8.4-8.4,8.4h-72.7c-4.64,0-8.4-3.76-8.4-8.4s3.76-8.4,8.4-8.4Z"/>
</svg>
